M48
; DRILL file KiCad 10.0.5 date 2026-09-06T20:40:05
; FORMAT={-:-/ absolute / metric / decimal}
; #@! TF.CreationDate,2026-09-06T20:40:05+07:00
; #@! TF.GenerationSoftware,Kicad,Pcbnew,10.0.5
; #@! TF.FileFunction,Plated,1,2,PTH
FMAT,2
METRIC
; #@! TA.AperFunction,Plated,PTH,ViaDrill
T1C0.300
; #@! TA.AperFunction,Plated,PTH,ComponentDrill
T2C0.700
; #@! TA.AperFunction,Plated,PTH,ComponentDrill
T3C0.800
; #@! TA.AperFunction,Plated,PTH,ComponentDrill
T4C0.900
; #@! TA.AperFunction,Plated,PTH,ComponentDrill
T5C1.000
; #@! TA.AperFunction,Plated,PTH,ComponentDrill
T6C1.100
; #@! TA.AperFunction,Plated,PTH,ComponentDrill
T7C1.270
%
G90
G05
T1
X118.176Y-67.839
X129.654Y-87.996
X145.424Y-79.279
X175.075Y-79.596
T2
X96.2Y-93.82
X96.2Y-95.72
X100.7Y-93.815
X100.7Y-95.715
X118.795Y-70.015
X118.795Y-74.815
X118.945Y-78.815
X120.695Y-70.015
X120.695Y-74.815
X120.845Y-78.815
X187.05Y-65.41
X187.05Y-67.31
X191.7Y-65.815
X191.7Y-67.715
X195.7Y-65.815
X195.7Y-67.715
X200.05Y-65.815
X200.05Y-67.715
T3
X93.46Y-106.735
X93.46Y-109.275
X93.46Y-111.815
X93.46Y-114.355
X93.46Y-116.895
X169.7Y-111.315
X169.7Y-118.935
X175.96Y-105.735
X175.96Y-108.275
X175.96Y-110.815
X175.96Y-113.355
X175.96Y-115.895
T4
X98.7Y-72.156
X98.7Y-74.315
X98.7Y-76.474
X98.7Y-78.633
X135.1Y-66.415
X135.1Y-91.815
X137.64Y-66.415
X137.64Y-91.815
X140.18Y-66.415
X140.18Y-91.815
X142.72Y-66.415
X142.72Y-91.815
X145.26Y-66.415
X145.26Y-91.815
X147.8Y-66.415
X147.8Y-91.815
X150.34Y-66.415
X150.34Y-91.815
X152.88Y-66.415
X152.88Y-91.815
X155.42Y-66.415
X155.42Y-91.815
X157.96Y-66.415
X157.96Y-91.815
X160.5Y-66.415
X160.5Y-91.815
X163.04Y-66.415
X163.04Y-91.815
X165.58Y-66.415
X165.58Y-91.815
X168.12Y-66.415
X168.12Y-91.815
X170.66Y-66.415
X170.66Y-91.815
X173.2Y-66.415
X173.2Y-91.815
X175.74Y-66.415
X175.74Y-91.815
X178.28Y-66.415
X178.28Y-91.815
X180.82Y-66.415
X180.82Y-91.815
T5
X130.52Y-99.639
X130.52Y-123.089
X133.69Y-99.639
X141.71Y-99.639
X144.88Y-99.639
X144.88Y-123.089
X168.9Y-100.565
X168.9Y-103.065
T6
X99.95Y-85.065
X99.95Y-89.565
X106.45Y-73.065
X106.45Y-77.565
X106.45Y-85.065
X106.45Y-89.565
X112.95Y-73.065
X112.95Y-77.565
X116.45Y-84.565
X116.45Y-89.065
X122.95Y-84.565
X122.95Y-89.065
X185.95Y-83.065
X185.95Y-87.565
X192.45Y-83.065
X192.45Y-87.565
X192.95Y-73.065
X192.95Y-77.565
X199.45Y-73.065
X199.45Y-77.565
X199.7Y-83.065
X199.7Y-87.565
X206.2Y-83.065
X206.2Y-87.565
T7
X150.2Y-99.425
X150.2Y-101.965
X150.2Y-104.505
X150.2Y-107.045
X150.2Y-109.585
X150.2Y-112.125
X150.2Y-114.665
X150.2Y-117.205
M30
