%TF.GenerationSoftware,KiCad,Pcbnew,10.0.5*%
%TF.CreationDate,2026-09-06T20:38:01+07:00*%
%TF.ProjectId,advance schematic,61647661-6e63-4652-9073-6368656d6174,rev?*%
%TF.SameCoordinates,Original*%
%TF.FileFunction,Legend,Top*%
%TF.FilePolarity,Positive*%
%FSLAX46Y46*%
G04 Gerber Fmt 4.6, Leading zero omitted, Abs format (unit mm)*
G04 Created by KiCad (PCBNEW 10.0.5) date 2026-09-06 20:38:01*
%MOMM*%
%LPD*%
G01*
G04 APERTURE LIST*
%ADD10C,0.150000*%
%ADD11C,0.100000*%
%ADD12C,0.120000*%
%ADD13C,0.127000*%
%ADD14C,0.200000*%
G04 APERTURE END LIST*
D10*
X138789160Y-61974160D02*
X139265350Y-61974160D01*
X138693922Y-62259875D02*
X139027255Y-61259875D01*
X139027255Y-61259875D02*
X139360588Y-62259875D01*
X140170112Y-62259875D02*
X139693922Y-62259875D01*
X139693922Y-62259875D02*
X139693922Y-61259875D01*
X140503446Y-62259875D02*
X140503446Y-61259875D01*
X141551064Y-62164636D02*
X141503445Y-62212256D01*
X141503445Y-62212256D02*
X141360588Y-62259875D01*
X141360588Y-62259875D02*
X141265350Y-62259875D01*
X141265350Y-62259875D02*
X141122493Y-62212256D01*
X141122493Y-62212256D02*
X141027255Y-62117017D01*
X141027255Y-62117017D02*
X140979636Y-62021779D01*
X140979636Y-62021779D02*
X140932017Y-61831303D01*
X140932017Y-61831303D02*
X140932017Y-61688446D01*
X140932017Y-61688446D02*
X140979636Y-61497970D01*
X140979636Y-61497970D02*
X141027255Y-61402732D01*
X141027255Y-61402732D02*
X141122493Y-61307494D01*
X141122493Y-61307494D02*
X141265350Y-61259875D01*
X141265350Y-61259875D02*
X141360588Y-61259875D01*
X141360588Y-61259875D02*
X141503445Y-61307494D01*
X141503445Y-61307494D02*
X141551064Y-61355113D01*
X141979636Y-62259875D02*
X141979636Y-61259875D01*
X142408207Y-61974160D02*
X142884397Y-61974160D01*
X142312969Y-62259875D02*
X142646302Y-61259875D01*
X142646302Y-61259875D02*
X142979635Y-62259875D01*
X144074874Y-62259875D02*
X144074874Y-61259875D01*
X144074874Y-61259875D02*
X144408207Y-61974160D01*
X144408207Y-61974160D02*
X144741540Y-61259875D01*
X144741540Y-61259875D02*
X144741540Y-62259875D01*
X145170112Y-61974160D02*
X145646302Y-61974160D01*
X145074874Y-62259875D02*
X145408207Y-61259875D01*
X145408207Y-61259875D02*
X145741540Y-62259875D01*
X146074874Y-62259875D02*
X146074874Y-61259875D01*
X146074874Y-61736065D02*
X146646302Y-61736065D01*
X146646302Y-62259875D02*
X146646302Y-61259875D01*
X147074874Y-61974160D02*
X147551064Y-61974160D01*
X146979636Y-62259875D02*
X147312969Y-61259875D01*
X147312969Y-61259875D02*
X147646302Y-62259875D01*
X148551064Y-62259875D02*
X148217731Y-61783684D01*
X147979636Y-62259875D02*
X147979636Y-61259875D01*
X147979636Y-61259875D02*
X148360588Y-61259875D01*
X148360588Y-61259875D02*
X148455826Y-61307494D01*
X148455826Y-61307494D02*
X148503445Y-61355113D01*
X148503445Y-61355113D02*
X148551064Y-61450351D01*
X148551064Y-61450351D02*
X148551064Y-61593208D01*
X148551064Y-61593208D02*
X148503445Y-61688446D01*
X148503445Y-61688446D02*
X148455826Y-61736065D01*
X148455826Y-61736065D02*
X148360588Y-61783684D01*
X148360588Y-61783684D02*
X147979636Y-61783684D01*
X148932017Y-61974160D02*
X149408207Y-61974160D01*
X148836779Y-62259875D02*
X149170112Y-61259875D01*
X149170112Y-61259875D02*
X149503445Y-62259875D01*
X149836779Y-62259875D02*
X149836779Y-61259875D01*
X149836779Y-61259875D02*
X150408207Y-62259875D01*
X150408207Y-62259875D02*
X150408207Y-61259875D01*
X150884398Y-62259875D02*
X150884398Y-61259875D01*
X152122493Y-61878922D02*
X152884398Y-61878922D01*
X154693921Y-62259875D02*
X154360588Y-61783684D01*
X154122493Y-62259875D02*
X154122493Y-61259875D01*
X154122493Y-61259875D02*
X154503445Y-61259875D01*
X154503445Y-61259875D02*
X154598683Y-61307494D01*
X154598683Y-61307494D02*
X154646302Y-61355113D01*
X154646302Y-61355113D02*
X154693921Y-61450351D01*
X154693921Y-61450351D02*
X154693921Y-61593208D01*
X154693921Y-61593208D02*
X154646302Y-61688446D01*
X154646302Y-61688446D02*
X154598683Y-61736065D01*
X154598683Y-61736065D02*
X154503445Y-61783684D01*
X154503445Y-61783684D02*
X154122493Y-61783684D01*
X155122493Y-61736065D02*
X155455826Y-61736065D01*
X155598683Y-62259875D02*
X155122493Y-62259875D01*
X155122493Y-62259875D02*
X155122493Y-61259875D01*
X155122493Y-61259875D02*
X155598683Y-61259875D01*
X156027255Y-62259875D02*
X156027255Y-61259875D01*
X156027255Y-61259875D02*
X156360588Y-61974160D01*
X156360588Y-61974160D02*
X156693921Y-61259875D01*
X156693921Y-61259875D02*
X156693921Y-62259875D01*
X157360588Y-61259875D02*
X157551064Y-61259875D01*
X157551064Y-61259875D02*
X157646302Y-61307494D01*
X157646302Y-61307494D02*
X157741540Y-61402732D01*
X157741540Y-61402732D02*
X157789159Y-61593208D01*
X157789159Y-61593208D02*
X157789159Y-61926541D01*
X157789159Y-61926541D02*
X157741540Y-62117017D01*
X157741540Y-62117017D02*
X157646302Y-62212256D01*
X157646302Y-62212256D02*
X157551064Y-62259875D01*
X157551064Y-62259875D02*
X157360588Y-62259875D01*
X157360588Y-62259875D02*
X157265350Y-62212256D01*
X157265350Y-62212256D02*
X157170112Y-62117017D01*
X157170112Y-62117017D02*
X157122493Y-61926541D01*
X157122493Y-61926541D02*
X157122493Y-61593208D01*
X157122493Y-61593208D02*
X157170112Y-61402732D01*
X157170112Y-61402732D02*
X157265350Y-61307494D01*
X157265350Y-61307494D02*
X157360588Y-61259875D01*
X158074874Y-61259875D02*
X158646302Y-61259875D01*
X158360588Y-62259875D02*
X158360588Y-61259875D01*
X158979636Y-61736065D02*
X159312969Y-61736065D01*
X159455826Y-62259875D02*
X158979636Y-62259875D01*
X158979636Y-62259875D02*
X158979636Y-61259875D01*
X158979636Y-61259875D02*
X159455826Y-61259875D01*
X161217731Y-62164636D02*
X161170112Y-62212256D01*
X161170112Y-62212256D02*
X161027255Y-62259875D01*
X161027255Y-62259875D02*
X160932017Y-62259875D01*
X160932017Y-62259875D02*
X160789160Y-62212256D01*
X160789160Y-62212256D02*
X160693922Y-62117017D01*
X160693922Y-62117017D02*
X160646303Y-62021779D01*
X160646303Y-62021779D02*
X160598684Y-61831303D01*
X160598684Y-61831303D02*
X160598684Y-61688446D01*
X160598684Y-61688446D02*
X160646303Y-61497970D01*
X160646303Y-61497970D02*
X160693922Y-61402732D01*
X160693922Y-61402732D02*
X160789160Y-61307494D01*
X160789160Y-61307494D02*
X160932017Y-61259875D01*
X160932017Y-61259875D02*
X161027255Y-61259875D01*
X161027255Y-61259875D02*
X161170112Y-61307494D01*
X161170112Y-61307494D02*
X161217731Y-61355113D01*
X161836779Y-61259875D02*
X162027255Y-61259875D01*
X162027255Y-61259875D02*
X162122493Y-61307494D01*
X162122493Y-61307494D02*
X162217731Y-61402732D01*
X162217731Y-61402732D02*
X162265350Y-61593208D01*
X162265350Y-61593208D02*
X162265350Y-61926541D01*
X162265350Y-61926541D02*
X162217731Y-62117017D01*
X162217731Y-62117017D02*
X162122493Y-62212256D01*
X162122493Y-62212256D02*
X162027255Y-62259875D01*
X162027255Y-62259875D02*
X161836779Y-62259875D01*
X161836779Y-62259875D02*
X161741541Y-62212256D01*
X161741541Y-62212256D02*
X161646303Y-62117017D01*
X161646303Y-62117017D02*
X161598684Y-61926541D01*
X161598684Y-61926541D02*
X161598684Y-61593208D01*
X161598684Y-61593208D02*
X161646303Y-61402732D01*
X161646303Y-61402732D02*
X161741541Y-61307494D01*
X161741541Y-61307494D02*
X161836779Y-61259875D01*
X162693922Y-62259875D02*
X162693922Y-61259875D01*
X162693922Y-61259875D02*
X163265350Y-62259875D01*
X163265350Y-62259875D02*
X163265350Y-61259875D01*
X163598684Y-61259875D02*
X164170112Y-61259875D01*
X163884398Y-62259875D02*
X163884398Y-61259875D01*
X165074874Y-62259875D02*
X164741541Y-61783684D01*
X164503446Y-62259875D02*
X164503446Y-61259875D01*
X164503446Y-61259875D02*
X164884398Y-61259875D01*
X164884398Y-61259875D02*
X164979636Y-61307494D01*
X164979636Y-61307494D02*
X165027255Y-61355113D01*
X165027255Y-61355113D02*
X165074874Y-61450351D01*
X165074874Y-61450351D02*
X165074874Y-61593208D01*
X165074874Y-61593208D02*
X165027255Y-61688446D01*
X165027255Y-61688446D02*
X164979636Y-61736065D01*
X164979636Y-61736065D02*
X164884398Y-61783684D01*
X164884398Y-61783684D02*
X164503446Y-61783684D01*
X165693922Y-61259875D02*
X165884398Y-61259875D01*
X165884398Y-61259875D02*
X165979636Y-61307494D01*
X165979636Y-61307494D02*
X166074874Y-61402732D01*
X166074874Y-61402732D02*
X166122493Y-61593208D01*
X166122493Y-61593208D02*
X166122493Y-61926541D01*
X166122493Y-61926541D02*
X166074874Y-62117017D01*
X166074874Y-62117017D02*
X165979636Y-62212256D01*
X165979636Y-62212256D02*
X165884398Y-62259875D01*
X165884398Y-62259875D02*
X165693922Y-62259875D01*
X165693922Y-62259875D02*
X165598684Y-62212256D01*
X165598684Y-62212256D02*
X165503446Y-62117017D01*
X165503446Y-62117017D02*
X165455827Y-61926541D01*
X165455827Y-61926541D02*
X165455827Y-61593208D01*
X165455827Y-61593208D02*
X165503446Y-61402732D01*
X165503446Y-61402732D02*
X165598684Y-61307494D01*
X165598684Y-61307494D02*
X165693922Y-61259875D01*
X167027255Y-62259875D02*
X166551065Y-62259875D01*
X166551065Y-62259875D02*
X166551065Y-61259875D01*
D11*
X191029507Y-95596569D02*
X191029507Y-96310854D01*
X191029507Y-96310854D02*
X190981888Y-96453711D01*
X190981888Y-96453711D02*
X190886650Y-96548950D01*
X190886650Y-96548950D02*
X190743793Y-96596569D01*
X190743793Y-96596569D02*
X190648555Y-96596569D01*
X191696174Y-95596569D02*
X191886650Y-95596569D01*
X191886650Y-95596569D02*
X191981888Y-95644188D01*
X191981888Y-95644188D02*
X192077126Y-95739426D01*
X192077126Y-95739426D02*
X192124745Y-95929902D01*
X192124745Y-95929902D02*
X192124745Y-96263235D01*
X192124745Y-96263235D02*
X192077126Y-96453711D01*
X192077126Y-96453711D02*
X191981888Y-96548950D01*
X191981888Y-96548950D02*
X191886650Y-96596569D01*
X191886650Y-96596569D02*
X191696174Y-96596569D01*
X191696174Y-96596569D02*
X191600936Y-96548950D01*
X191600936Y-96548950D02*
X191505698Y-96453711D01*
X191505698Y-96453711D02*
X191458079Y-96263235D01*
X191458079Y-96263235D02*
X191458079Y-95929902D01*
X191458079Y-95929902D02*
X191505698Y-95739426D01*
X191505698Y-95739426D02*
X191600936Y-95644188D01*
X191600936Y-95644188D02*
X191696174Y-95596569D01*
X192505698Y-95691807D02*
X192553317Y-95644188D01*
X192553317Y-95644188D02*
X192648555Y-95596569D01*
X192648555Y-95596569D02*
X192886650Y-95596569D01*
X192886650Y-95596569D02*
X192981888Y-95644188D01*
X192981888Y-95644188D02*
X193029507Y-95691807D01*
X193029507Y-95691807D02*
X193077126Y-95787045D01*
X193077126Y-95787045D02*
X193077126Y-95882283D01*
X193077126Y-95882283D02*
X193029507Y-96025140D01*
X193029507Y-96025140D02*
X192458079Y-96596569D01*
X192458079Y-96596569D02*
X193077126Y-96596569D01*
D10*
X119578283Y-73349969D02*
X119244950Y-72873778D01*
X119006855Y-73349969D02*
X119006855Y-72349969D01*
X119006855Y-72349969D02*
X119387807Y-72349969D01*
X119387807Y-72349969D02*
X119483045Y-72397588D01*
X119483045Y-72397588D02*
X119530664Y-72445207D01*
X119530664Y-72445207D02*
X119578283Y-72540445D01*
X119578283Y-72540445D02*
X119578283Y-72683302D01*
X119578283Y-72683302D02*
X119530664Y-72778540D01*
X119530664Y-72778540D02*
X119483045Y-72826159D01*
X119483045Y-72826159D02*
X119387807Y-72873778D01*
X119387807Y-72873778D02*
X119006855Y-72873778D01*
X119959236Y-72445207D02*
X120006855Y-72397588D01*
X120006855Y-72397588D02*
X120102093Y-72349969D01*
X120102093Y-72349969D02*
X120340188Y-72349969D01*
X120340188Y-72349969D02*
X120435426Y-72397588D01*
X120435426Y-72397588D02*
X120483045Y-72445207D01*
X120483045Y-72445207D02*
X120530664Y-72540445D01*
X120530664Y-72540445D02*
X120530664Y-72635683D01*
X120530664Y-72635683D02*
X120483045Y-72778540D01*
X120483045Y-72778540D02*
X119911617Y-73349969D01*
X119911617Y-73349969D02*
X120530664Y-73349969D01*
X127519769Y-122451054D02*
X127519769Y-121879626D01*
X128519769Y-122165340D02*
X127519769Y-122165340D01*
X128519769Y-121546292D02*
X127519769Y-121546292D01*
X127519769Y-121546292D02*
X127519769Y-121165340D01*
X127519769Y-121165340D02*
X127567388Y-121070102D01*
X127567388Y-121070102D02*
X127615007Y-121022483D01*
X127615007Y-121022483D02*
X127710245Y-120974864D01*
X127710245Y-120974864D02*
X127853102Y-120974864D01*
X127853102Y-120974864D02*
X127948340Y-121022483D01*
X127948340Y-121022483D02*
X127995959Y-121070102D01*
X127995959Y-121070102D02*
X128043578Y-121165340D01*
X128043578Y-121165340D02*
X128043578Y-121546292D01*
X128519769Y-120022483D02*
X128519769Y-120593911D01*
X128519769Y-120308197D02*
X127519769Y-120308197D01*
X127519769Y-120308197D02*
X127662626Y-120403435D01*
X127662626Y-120403435D02*
X127757864Y-120498673D01*
X127757864Y-120498673D02*
X127805483Y-120593911D01*
X194866617Y-71472350D02*
X195009474Y-71519969D01*
X195009474Y-71519969D02*
X195247569Y-71519969D01*
X195247569Y-71519969D02*
X195342807Y-71472350D01*
X195342807Y-71472350D02*
X195390426Y-71424730D01*
X195390426Y-71424730D02*
X195438045Y-71329492D01*
X195438045Y-71329492D02*
X195438045Y-71234254D01*
X195438045Y-71234254D02*
X195390426Y-71139016D01*
X195390426Y-71139016D02*
X195342807Y-71091397D01*
X195342807Y-71091397D02*
X195247569Y-71043778D01*
X195247569Y-71043778D02*
X195057093Y-70996159D01*
X195057093Y-70996159D02*
X194961855Y-70948540D01*
X194961855Y-70948540D02*
X194914236Y-70900921D01*
X194914236Y-70900921D02*
X194866617Y-70805683D01*
X194866617Y-70805683D02*
X194866617Y-70710445D01*
X194866617Y-70710445D02*
X194914236Y-70615207D01*
X194914236Y-70615207D02*
X194961855Y-70567588D01*
X194961855Y-70567588D02*
X195057093Y-70519969D01*
X195057093Y-70519969D02*
X195295188Y-70519969D01*
X195295188Y-70519969D02*
X195438045Y-70567588D01*
X195771379Y-70519969D02*
X196009474Y-71519969D01*
X196009474Y-71519969D02*
X196199950Y-70805683D01*
X196199950Y-70805683D02*
X196390426Y-71519969D01*
X196390426Y-71519969D02*
X196628522Y-70519969D01*
X197438045Y-70853302D02*
X197438045Y-71519969D01*
X197199950Y-70472350D02*
X196961855Y-71186635D01*
X196961855Y-71186635D02*
X197580902Y-71186635D01*
X187866617Y-81472350D02*
X188009474Y-81519969D01*
X188009474Y-81519969D02*
X188247569Y-81519969D01*
X188247569Y-81519969D02*
X188342807Y-81472350D01*
X188342807Y-81472350D02*
X188390426Y-81424730D01*
X188390426Y-81424730D02*
X188438045Y-81329492D01*
X188438045Y-81329492D02*
X188438045Y-81234254D01*
X188438045Y-81234254D02*
X188390426Y-81139016D01*
X188390426Y-81139016D02*
X188342807Y-81091397D01*
X188342807Y-81091397D02*
X188247569Y-81043778D01*
X188247569Y-81043778D02*
X188057093Y-80996159D01*
X188057093Y-80996159D02*
X187961855Y-80948540D01*
X187961855Y-80948540D02*
X187914236Y-80900921D01*
X187914236Y-80900921D02*
X187866617Y-80805683D01*
X187866617Y-80805683D02*
X187866617Y-80710445D01*
X187866617Y-80710445D02*
X187914236Y-80615207D01*
X187914236Y-80615207D02*
X187961855Y-80567588D01*
X187961855Y-80567588D02*
X188057093Y-80519969D01*
X188057093Y-80519969D02*
X188295188Y-80519969D01*
X188295188Y-80519969D02*
X188438045Y-80567588D01*
X188771379Y-80519969D02*
X189009474Y-81519969D01*
X189009474Y-81519969D02*
X189199950Y-80805683D01*
X189199950Y-80805683D02*
X189390426Y-81519969D01*
X189390426Y-81519969D02*
X189628522Y-80519969D01*
X189961855Y-80615207D02*
X190009474Y-80567588D01*
X190009474Y-80567588D02*
X190104712Y-80519969D01*
X190104712Y-80519969D02*
X190342807Y-80519969D01*
X190342807Y-80519969D02*
X190438045Y-80567588D01*
X190438045Y-80567588D02*
X190485664Y-80615207D01*
X190485664Y-80615207D02*
X190533283Y-80710445D01*
X190533283Y-80710445D02*
X190533283Y-80805683D01*
X190533283Y-80805683D02*
X190485664Y-80948540D01*
X190485664Y-80948540D02*
X189914236Y-81519969D01*
X189914236Y-81519969D02*
X190533283Y-81519969D01*
X116438045Y-82972350D02*
X116533283Y-83019969D01*
X116533283Y-83019969D02*
X116723759Y-83019969D01*
X116723759Y-83019969D02*
X116818997Y-82972350D01*
X116818997Y-82972350D02*
X116866616Y-82877111D01*
X116866616Y-82877111D02*
X116866616Y-82829492D01*
X116866616Y-82829492D02*
X116818997Y-82734254D01*
X116818997Y-82734254D02*
X116723759Y-82686635D01*
X116723759Y-82686635D02*
X116580902Y-82686635D01*
X116580902Y-82686635D02*
X116485664Y-82639016D01*
X116485664Y-82639016D02*
X116438045Y-82543778D01*
X116438045Y-82543778D02*
X116438045Y-82496159D01*
X116438045Y-82496159D02*
X116485664Y-82400921D01*
X116485664Y-82400921D02*
X116580902Y-82353302D01*
X116580902Y-82353302D02*
X116723759Y-82353302D01*
X116723759Y-82353302D02*
X116818997Y-82400921D01*
X117199950Y-82353302D02*
X117390426Y-83019969D01*
X117390426Y-83019969D02*
X117580902Y-82543778D01*
X117580902Y-82543778D02*
X117771378Y-83019969D01*
X117771378Y-83019969D02*
X117961854Y-82353302D01*
X118104712Y-83115207D02*
X118866616Y-83115207D01*
X119533283Y-83019969D02*
X119533283Y-82019969D01*
X119533283Y-82972350D02*
X119438045Y-83019969D01*
X119438045Y-83019969D02*
X119247569Y-83019969D01*
X119247569Y-83019969D02*
X119152331Y-82972350D01*
X119152331Y-82972350D02*
X119104712Y-82924730D01*
X119104712Y-82924730D02*
X119057093Y-82829492D01*
X119057093Y-82829492D02*
X119057093Y-82543778D01*
X119057093Y-82543778D02*
X119104712Y-82448540D01*
X119104712Y-82448540D02*
X119152331Y-82400921D01*
X119152331Y-82400921D02*
X119247569Y-82353302D01*
X119247569Y-82353302D02*
X119438045Y-82353302D01*
X119438045Y-82353302D02*
X119533283Y-82400921D01*
X120009474Y-83019969D02*
X120009474Y-82353302D01*
X120009474Y-82543778D02*
X120057093Y-82448540D01*
X120057093Y-82448540D02*
X120104712Y-82400921D01*
X120104712Y-82400921D02*
X120199950Y-82353302D01*
X120199950Y-82353302D02*
X120295188Y-82353302D01*
X120771379Y-83019969D02*
X120676141Y-82972350D01*
X120676141Y-82972350D02*
X120628522Y-82924730D01*
X120628522Y-82924730D02*
X120580903Y-82829492D01*
X120580903Y-82829492D02*
X120580903Y-82543778D01*
X120580903Y-82543778D02*
X120628522Y-82448540D01*
X120628522Y-82448540D02*
X120676141Y-82400921D01*
X120676141Y-82400921D02*
X120771379Y-82353302D01*
X120771379Y-82353302D02*
X120914236Y-82353302D01*
X120914236Y-82353302D02*
X121009474Y-82400921D01*
X121009474Y-82400921D02*
X121057093Y-82448540D01*
X121057093Y-82448540D02*
X121104712Y-82543778D01*
X121104712Y-82543778D02*
X121104712Y-82829492D01*
X121104712Y-82829492D02*
X121057093Y-82924730D01*
X121057093Y-82924730D02*
X121009474Y-82972350D01*
X121009474Y-82972350D02*
X120914236Y-83019969D01*
X120914236Y-83019969D02*
X120771379Y-83019969D01*
X121533284Y-82353302D02*
X121533284Y-83353302D01*
X121533284Y-82400921D02*
X121628522Y-82353302D01*
X121628522Y-82353302D02*
X121818998Y-82353302D01*
X121818998Y-82353302D02*
X121914236Y-82400921D01*
X121914236Y-82400921D02*
X121961855Y-82448540D01*
X121961855Y-82448540D02*
X122009474Y-82543778D01*
X122009474Y-82543778D02*
X122009474Y-82829492D01*
X122009474Y-82829492D02*
X121961855Y-82924730D01*
X121961855Y-82924730D02*
X121914236Y-82972350D01*
X121914236Y-82972350D02*
X121818998Y-83019969D01*
X121818998Y-83019969D02*
X121628522Y-83019969D01*
X121628522Y-83019969D02*
X121533284Y-82972350D01*
X122961855Y-83019969D02*
X122390427Y-83019969D01*
X122676141Y-83019969D02*
X122676141Y-82019969D01*
X122676141Y-82019969D02*
X122580903Y-82162826D01*
X122580903Y-82162826D02*
X122485665Y-82258064D01*
X122485665Y-82258064D02*
X122390427Y-82305683D01*
X119728283Y-77349969D02*
X119394950Y-76873778D01*
X119156855Y-77349969D02*
X119156855Y-76349969D01*
X119156855Y-76349969D02*
X119537807Y-76349969D01*
X119537807Y-76349969D02*
X119633045Y-76397588D01*
X119633045Y-76397588D02*
X119680664Y-76445207D01*
X119680664Y-76445207D02*
X119728283Y-76540445D01*
X119728283Y-76540445D02*
X119728283Y-76683302D01*
X119728283Y-76683302D02*
X119680664Y-76778540D01*
X119680664Y-76778540D02*
X119633045Y-76826159D01*
X119633045Y-76826159D02*
X119537807Y-76873778D01*
X119537807Y-76873778D02*
X119156855Y-76873778D01*
X120061617Y-76349969D02*
X120680664Y-76349969D01*
X120680664Y-76349969D02*
X120347331Y-76730921D01*
X120347331Y-76730921D02*
X120490188Y-76730921D01*
X120490188Y-76730921D02*
X120585426Y-76778540D01*
X120585426Y-76778540D02*
X120633045Y-76826159D01*
X120633045Y-76826159D02*
X120680664Y-76921397D01*
X120680664Y-76921397D02*
X120680664Y-77159492D01*
X120680664Y-77159492D02*
X120633045Y-77254730D01*
X120633045Y-77254730D02*
X120585426Y-77302350D01*
X120585426Y-77302350D02*
X120490188Y-77349969D01*
X120490188Y-77349969D02*
X120204474Y-77349969D01*
X120204474Y-77349969D02*
X120109236Y-77302350D01*
X120109236Y-77302350D02*
X120061617Y-77254730D01*
X201616617Y-81472350D02*
X201759474Y-81519969D01*
X201759474Y-81519969D02*
X201997569Y-81519969D01*
X201997569Y-81519969D02*
X202092807Y-81472350D01*
X202092807Y-81472350D02*
X202140426Y-81424730D01*
X202140426Y-81424730D02*
X202188045Y-81329492D01*
X202188045Y-81329492D02*
X202188045Y-81234254D01*
X202188045Y-81234254D02*
X202140426Y-81139016D01*
X202140426Y-81139016D02*
X202092807Y-81091397D01*
X202092807Y-81091397D02*
X201997569Y-81043778D01*
X201997569Y-81043778D02*
X201807093Y-80996159D01*
X201807093Y-80996159D02*
X201711855Y-80948540D01*
X201711855Y-80948540D02*
X201664236Y-80900921D01*
X201664236Y-80900921D02*
X201616617Y-80805683D01*
X201616617Y-80805683D02*
X201616617Y-80710445D01*
X201616617Y-80710445D02*
X201664236Y-80615207D01*
X201664236Y-80615207D02*
X201711855Y-80567588D01*
X201711855Y-80567588D02*
X201807093Y-80519969D01*
X201807093Y-80519969D02*
X202045188Y-80519969D01*
X202045188Y-80519969D02*
X202188045Y-80567588D01*
X202521379Y-80519969D02*
X202759474Y-81519969D01*
X202759474Y-81519969D02*
X202949950Y-80805683D01*
X202949950Y-80805683D02*
X203140426Y-81519969D01*
X203140426Y-81519969D02*
X203378522Y-80519969D01*
X203664236Y-80519969D02*
X204283283Y-80519969D01*
X204283283Y-80519969D02*
X203949950Y-80900921D01*
X203949950Y-80900921D02*
X204092807Y-80900921D01*
X204092807Y-80900921D02*
X204188045Y-80948540D01*
X204188045Y-80948540D02*
X204235664Y-80996159D01*
X204235664Y-80996159D02*
X204283283Y-81091397D01*
X204283283Y-81091397D02*
X204283283Y-81329492D01*
X204283283Y-81329492D02*
X204235664Y-81424730D01*
X204235664Y-81424730D02*
X204188045Y-81472350D01*
X204188045Y-81472350D02*
X204092807Y-81519969D01*
X204092807Y-81519969D02*
X203807093Y-81519969D01*
X203807093Y-81519969D02*
X203711855Y-81472350D01*
X203711855Y-81472350D02*
X203664236Y-81424730D01*
X166997150Y-116458482D02*
X167044769Y-116315625D01*
X167044769Y-116315625D02*
X167044769Y-116077530D01*
X167044769Y-116077530D02*
X166997150Y-115982292D01*
X166997150Y-115982292D02*
X166949530Y-115934673D01*
X166949530Y-115934673D02*
X166854292Y-115887054D01*
X166854292Y-115887054D02*
X166759054Y-115887054D01*
X166759054Y-115887054D02*
X166663816Y-115934673D01*
X166663816Y-115934673D02*
X166616197Y-115982292D01*
X166616197Y-115982292D02*
X166568578Y-116077530D01*
X166568578Y-116077530D02*
X166520959Y-116268006D01*
X166520959Y-116268006D02*
X166473340Y-116363244D01*
X166473340Y-116363244D02*
X166425721Y-116410863D01*
X166425721Y-116410863D02*
X166330483Y-116458482D01*
X166330483Y-116458482D02*
X166235245Y-116458482D01*
X166235245Y-116458482D02*
X166140007Y-116410863D01*
X166140007Y-116410863D02*
X166092388Y-116363244D01*
X166092388Y-116363244D02*
X166044769Y-116268006D01*
X166044769Y-116268006D02*
X166044769Y-116029911D01*
X166044769Y-116029911D02*
X166092388Y-115887054D01*
X166044769Y-115553720D02*
X167044769Y-115315625D01*
X167044769Y-115315625D02*
X166330483Y-115125149D01*
X166330483Y-115125149D02*
X167044769Y-114934673D01*
X167044769Y-114934673D02*
X166044769Y-114696578D01*
X166044769Y-113839435D02*
X166044769Y-114315625D01*
X166044769Y-114315625D02*
X166520959Y-114363244D01*
X166520959Y-114363244D02*
X166473340Y-114315625D01*
X166473340Y-114315625D02*
X166425721Y-114220387D01*
X166425721Y-114220387D02*
X166425721Y-113982292D01*
X166425721Y-113982292D02*
X166473340Y-113887054D01*
X166473340Y-113887054D02*
X166520959Y-113839435D01*
X166520959Y-113839435D02*
X166616197Y-113791816D01*
X166616197Y-113791816D02*
X166854292Y-113791816D01*
X166854292Y-113791816D02*
X166949530Y-113839435D01*
X166949530Y-113839435D02*
X166997150Y-113887054D01*
X166997150Y-113887054D02*
X167044769Y-113982292D01*
X167044769Y-113982292D02*
X167044769Y-114220387D01*
X167044769Y-114220387D02*
X166997150Y-114315625D01*
X166997150Y-114315625D02*
X166949530Y-114363244D01*
X198584769Y-66931816D02*
X198108578Y-67265149D01*
X198584769Y-67503244D02*
X197584769Y-67503244D01*
X197584769Y-67503244D02*
X197584769Y-67122292D01*
X197584769Y-67122292D02*
X197632388Y-67027054D01*
X197632388Y-67027054D02*
X197680007Y-66979435D01*
X197680007Y-66979435D02*
X197775245Y-66931816D01*
X197775245Y-66931816D02*
X197918102Y-66931816D01*
X197918102Y-66931816D02*
X198013340Y-66979435D01*
X198013340Y-66979435D02*
X198060959Y-67027054D01*
X198060959Y-67027054D02*
X198108578Y-67122292D01*
X198108578Y-67122292D02*
X198108578Y-67503244D01*
X197584769Y-66598482D02*
X197584769Y-65931816D01*
X197584769Y-65931816D02*
X198584769Y-66360387D01*
X165554769Y-102148483D02*
X166269054Y-102148483D01*
X166269054Y-102148483D02*
X166411911Y-102196102D01*
X166411911Y-102196102D02*
X166507150Y-102291340D01*
X166507150Y-102291340D02*
X166554769Y-102434197D01*
X166554769Y-102434197D02*
X166554769Y-102529435D01*
X166554769Y-101148483D02*
X166554769Y-101719911D01*
X166554769Y-101434197D02*
X165554769Y-101434197D01*
X165554769Y-101434197D02*
X165697626Y-101529435D01*
X165697626Y-101529435D02*
X165792864Y-101624673D01*
X165792864Y-101624673D02*
X165840483Y-101719911D01*
X95194769Y-76132744D02*
X94194769Y-76132744D01*
X94194769Y-76132744D02*
X94194769Y-75894649D01*
X94194769Y-75894649D02*
X94242388Y-75751792D01*
X94242388Y-75751792D02*
X94337626Y-75656554D01*
X94337626Y-75656554D02*
X94432864Y-75608935D01*
X94432864Y-75608935D02*
X94623340Y-75561316D01*
X94623340Y-75561316D02*
X94766197Y-75561316D01*
X94766197Y-75561316D02*
X94956673Y-75608935D01*
X94956673Y-75608935D02*
X95051911Y-75656554D01*
X95051911Y-75656554D02*
X95147150Y-75751792D01*
X95147150Y-75751792D02*
X95194769Y-75894649D01*
X95194769Y-75894649D02*
X95194769Y-76132744D01*
X95194769Y-74608935D02*
X95194769Y-75180363D01*
X95194769Y-74894649D02*
X94194769Y-74894649D01*
X94194769Y-74894649D02*
X94337626Y-74989887D01*
X94337626Y-74989887D02*
X94432864Y-75085125D01*
X94432864Y-75085125D02*
X94480483Y-75180363D01*
X190234769Y-66931816D02*
X189758578Y-67265149D01*
X190234769Y-67503244D02*
X189234769Y-67503244D01*
X189234769Y-67503244D02*
X189234769Y-67122292D01*
X189234769Y-67122292D02*
X189282388Y-67027054D01*
X189282388Y-67027054D02*
X189330007Y-66979435D01*
X189330007Y-66979435D02*
X189425245Y-66931816D01*
X189425245Y-66931816D02*
X189568102Y-66931816D01*
X189568102Y-66931816D02*
X189663340Y-66979435D01*
X189663340Y-66979435D02*
X189710959Y-67027054D01*
X189710959Y-67027054D02*
X189758578Y-67122292D01*
X189758578Y-67122292D02*
X189758578Y-67503244D01*
X189234769Y-66027054D02*
X189234769Y-66503244D01*
X189234769Y-66503244D02*
X189710959Y-66550863D01*
X189710959Y-66550863D02*
X189663340Y-66503244D01*
X189663340Y-66503244D02*
X189615721Y-66408006D01*
X189615721Y-66408006D02*
X189615721Y-66169911D01*
X189615721Y-66169911D02*
X189663340Y-66074673D01*
X189663340Y-66074673D02*
X189710959Y-66027054D01*
X189710959Y-66027054D02*
X189806197Y-65979435D01*
X189806197Y-65979435D02*
X190044292Y-65979435D01*
X190044292Y-65979435D02*
X190139530Y-66027054D01*
X190139530Y-66027054D02*
X190187150Y-66074673D01*
X190187150Y-66074673D02*
X190234769Y-66169911D01*
X190234769Y-66169911D02*
X190234769Y-66408006D01*
X190234769Y-66408006D02*
X190187150Y-66503244D01*
X190187150Y-66503244D02*
X190139530Y-66550863D01*
X150843045Y-95734969D02*
X150843045Y-96544492D01*
X150843045Y-96544492D02*
X150890664Y-96639730D01*
X150890664Y-96639730D02*
X150938283Y-96687350D01*
X150938283Y-96687350D02*
X151033521Y-96734969D01*
X151033521Y-96734969D02*
X151223997Y-96734969D01*
X151223997Y-96734969D02*
X151319235Y-96687350D01*
X151319235Y-96687350D02*
X151366854Y-96639730D01*
X151366854Y-96639730D02*
X151414473Y-96544492D01*
X151414473Y-96544492D02*
X151414473Y-95734969D01*
X151843045Y-95830207D02*
X151890664Y-95782588D01*
X151890664Y-95782588D02*
X151985902Y-95734969D01*
X151985902Y-95734969D02*
X152223997Y-95734969D01*
X152223997Y-95734969D02*
X152319235Y-95782588D01*
X152319235Y-95782588D02*
X152366854Y-95830207D01*
X152366854Y-95830207D02*
X152414473Y-95925445D01*
X152414473Y-95925445D02*
X152414473Y-96020683D01*
X152414473Y-96020683D02*
X152366854Y-96163540D01*
X152366854Y-96163540D02*
X151795426Y-96734969D01*
X151795426Y-96734969D02*
X152414473Y-96734969D01*
X125322269Y-85909554D02*
X126131792Y-85909554D01*
X126131792Y-85909554D02*
X126227030Y-85861935D01*
X126227030Y-85861935D02*
X126274650Y-85814316D01*
X126274650Y-85814316D02*
X126322269Y-85719078D01*
X126322269Y-85719078D02*
X126322269Y-85528602D01*
X126322269Y-85528602D02*
X126274650Y-85433364D01*
X126274650Y-85433364D02*
X126227030Y-85385745D01*
X126227030Y-85385745D02*
X126131792Y-85338126D01*
X126131792Y-85338126D02*
X125322269Y-85338126D01*
X126322269Y-84338126D02*
X126322269Y-84909554D01*
X126322269Y-84623840D02*
X125322269Y-84623840D01*
X125322269Y-84623840D02*
X125465126Y-84719078D01*
X125465126Y-84719078D02*
X125560364Y-84814316D01*
X125560364Y-84814316D02*
X125607983Y-84909554D01*
X99234769Y-94931816D02*
X98758578Y-95265149D01*
X99234769Y-95503244D02*
X98234769Y-95503244D01*
X98234769Y-95503244D02*
X98234769Y-95122292D01*
X98234769Y-95122292D02*
X98282388Y-95027054D01*
X98282388Y-95027054D02*
X98330007Y-94979435D01*
X98330007Y-94979435D02*
X98425245Y-94931816D01*
X98425245Y-94931816D02*
X98568102Y-94931816D01*
X98568102Y-94931816D02*
X98663340Y-94979435D01*
X98663340Y-94979435D02*
X98710959Y-95027054D01*
X98710959Y-95027054D02*
X98758578Y-95122292D01*
X98758578Y-95122292D02*
X98758578Y-95503244D01*
X99234769Y-94455625D02*
X99234769Y-94265149D01*
X99234769Y-94265149D02*
X99187150Y-94169911D01*
X99187150Y-94169911D02*
X99139530Y-94122292D01*
X99139530Y-94122292D02*
X98996673Y-94027054D01*
X98996673Y-94027054D02*
X98806197Y-93979435D01*
X98806197Y-93979435D02*
X98425245Y-93979435D01*
X98425245Y-93979435D02*
X98330007Y-94027054D01*
X98330007Y-94027054D02*
X98282388Y-94074673D01*
X98282388Y-94074673D02*
X98234769Y-94169911D01*
X98234769Y-94169911D02*
X98234769Y-94360387D01*
X98234769Y-94360387D02*
X98282388Y-94455625D01*
X98282388Y-94455625D02*
X98330007Y-94503244D01*
X98330007Y-94503244D02*
X98425245Y-94550863D01*
X98425245Y-94550863D02*
X98663340Y-94550863D01*
X98663340Y-94550863D02*
X98758578Y-94503244D01*
X98758578Y-94503244D02*
X98806197Y-94455625D01*
X98806197Y-94455625D02*
X98853816Y-94360387D01*
X98853816Y-94360387D02*
X98853816Y-94169911D01*
X98853816Y-94169911D02*
X98806197Y-94074673D01*
X98806197Y-94074673D02*
X98758578Y-94027054D01*
X98758578Y-94027054D02*
X98663340Y-93979435D01*
X119578283Y-68549969D02*
X119244950Y-68073778D01*
X119006855Y-68549969D02*
X119006855Y-67549969D01*
X119006855Y-67549969D02*
X119387807Y-67549969D01*
X119387807Y-67549969D02*
X119483045Y-67597588D01*
X119483045Y-67597588D02*
X119530664Y-67645207D01*
X119530664Y-67645207D02*
X119578283Y-67740445D01*
X119578283Y-67740445D02*
X119578283Y-67883302D01*
X119578283Y-67883302D02*
X119530664Y-67978540D01*
X119530664Y-67978540D02*
X119483045Y-68026159D01*
X119483045Y-68026159D02*
X119387807Y-68073778D01*
X119387807Y-68073778D02*
X119006855Y-68073778D01*
X120530664Y-68549969D02*
X119959236Y-68549969D01*
X120244950Y-68549969D02*
X120244950Y-67549969D01*
X120244950Y-67549969D02*
X120149712Y-67692826D01*
X120149712Y-67692826D02*
X120054474Y-67788064D01*
X120054474Y-67788064D02*
X119959236Y-67835683D01*
D11*
X107842807Y-96272569D02*
X107842807Y-96986854D01*
X107842807Y-96986854D02*
X107795188Y-97129711D01*
X107795188Y-97129711D02*
X107699950Y-97224950D01*
X107699950Y-97224950D02*
X107557093Y-97272569D01*
X107557093Y-97272569D02*
X107461855Y-97272569D01*
X108509474Y-96272569D02*
X108699950Y-96272569D01*
X108699950Y-96272569D02*
X108795188Y-96320188D01*
X108795188Y-96320188D02*
X108890426Y-96415426D01*
X108890426Y-96415426D02*
X108938045Y-96605902D01*
X108938045Y-96605902D02*
X108938045Y-96939235D01*
X108938045Y-96939235D02*
X108890426Y-97129711D01*
X108890426Y-97129711D02*
X108795188Y-97224950D01*
X108795188Y-97224950D02*
X108699950Y-97272569D01*
X108699950Y-97272569D02*
X108509474Y-97272569D01*
X108509474Y-97272569D02*
X108414236Y-97224950D01*
X108414236Y-97224950D02*
X108318998Y-97129711D01*
X108318998Y-97129711D02*
X108271379Y-96939235D01*
X108271379Y-96939235D02*
X108271379Y-96605902D01*
X108271379Y-96605902D02*
X108318998Y-96415426D01*
X108318998Y-96415426D02*
X108414236Y-96320188D01*
X108414236Y-96320188D02*
X108509474Y-96272569D01*
X109890426Y-97272569D02*
X109318998Y-97272569D01*
X109604712Y-97272569D02*
X109604712Y-96272569D01*
X109604712Y-96272569D02*
X109509474Y-96415426D01*
X109509474Y-96415426D02*
X109414236Y-96510664D01*
X109414236Y-96510664D02*
X109318998Y-96558283D01*
D10*
X194234769Y-66931816D02*
X193758578Y-67265149D01*
X194234769Y-67503244D02*
X193234769Y-67503244D01*
X193234769Y-67503244D02*
X193234769Y-67122292D01*
X193234769Y-67122292D02*
X193282388Y-67027054D01*
X193282388Y-67027054D02*
X193330007Y-66979435D01*
X193330007Y-66979435D02*
X193425245Y-66931816D01*
X193425245Y-66931816D02*
X193568102Y-66931816D01*
X193568102Y-66931816D02*
X193663340Y-66979435D01*
X193663340Y-66979435D02*
X193710959Y-67027054D01*
X193710959Y-67027054D02*
X193758578Y-67122292D01*
X193758578Y-67122292D02*
X193758578Y-67503244D01*
X193234769Y-66074673D02*
X193234769Y-66265149D01*
X193234769Y-66265149D02*
X193282388Y-66360387D01*
X193282388Y-66360387D02*
X193330007Y-66408006D01*
X193330007Y-66408006D02*
X193472864Y-66503244D01*
X193472864Y-66503244D02*
X193663340Y-66550863D01*
X193663340Y-66550863D02*
X194044292Y-66550863D01*
X194044292Y-66550863D02*
X194139530Y-66503244D01*
X194139530Y-66503244D02*
X194187150Y-66455625D01*
X194187150Y-66455625D02*
X194234769Y-66360387D01*
X194234769Y-66360387D02*
X194234769Y-66169911D01*
X194234769Y-66169911D02*
X194187150Y-66074673D01*
X194187150Y-66074673D02*
X194139530Y-66027054D01*
X194139530Y-66027054D02*
X194044292Y-65979435D01*
X194044292Y-65979435D02*
X193806197Y-65979435D01*
X193806197Y-65979435D02*
X193710959Y-66027054D01*
X193710959Y-66027054D02*
X193663340Y-66074673D01*
X193663340Y-66074673D02*
X193615721Y-66169911D01*
X193615721Y-66169911D02*
X193615721Y-66360387D01*
X193615721Y-66360387D02*
X193663340Y-66455625D01*
X193663340Y-66455625D02*
X193710959Y-66503244D01*
X193710959Y-66503244D02*
X193806197Y-66550863D01*
X94734769Y-94936816D02*
X94258578Y-95270149D01*
X94734769Y-95508244D02*
X93734769Y-95508244D01*
X93734769Y-95508244D02*
X93734769Y-95127292D01*
X93734769Y-95127292D02*
X93782388Y-95032054D01*
X93782388Y-95032054D02*
X93830007Y-94984435D01*
X93830007Y-94984435D02*
X93925245Y-94936816D01*
X93925245Y-94936816D02*
X94068102Y-94936816D01*
X94068102Y-94936816D02*
X94163340Y-94984435D01*
X94163340Y-94984435D02*
X94210959Y-95032054D01*
X94210959Y-95032054D02*
X94258578Y-95127292D01*
X94258578Y-95127292D02*
X94258578Y-95508244D01*
X94163340Y-94365387D02*
X94115721Y-94460625D01*
X94115721Y-94460625D02*
X94068102Y-94508244D01*
X94068102Y-94508244D02*
X93972864Y-94555863D01*
X93972864Y-94555863D02*
X93925245Y-94555863D01*
X93925245Y-94555863D02*
X93830007Y-94508244D01*
X93830007Y-94508244D02*
X93782388Y-94460625D01*
X93782388Y-94460625D02*
X93734769Y-94365387D01*
X93734769Y-94365387D02*
X93734769Y-94174911D01*
X93734769Y-94174911D02*
X93782388Y-94079673D01*
X93782388Y-94079673D02*
X93830007Y-94032054D01*
X93830007Y-94032054D02*
X93925245Y-93984435D01*
X93925245Y-93984435D02*
X93972864Y-93984435D01*
X93972864Y-93984435D02*
X94068102Y-94032054D01*
X94068102Y-94032054D02*
X94115721Y-94079673D01*
X94115721Y-94079673D02*
X94163340Y-94174911D01*
X94163340Y-94174911D02*
X94163340Y-94365387D01*
X94163340Y-94365387D02*
X94210959Y-94460625D01*
X94210959Y-94460625D02*
X94258578Y-94508244D01*
X94258578Y-94508244D02*
X94353816Y-94555863D01*
X94353816Y-94555863D02*
X94544292Y-94555863D01*
X94544292Y-94555863D02*
X94639530Y-94508244D01*
X94639530Y-94508244D02*
X94687150Y-94460625D01*
X94687150Y-94460625D02*
X94734769Y-94365387D01*
X94734769Y-94365387D02*
X94734769Y-94174911D01*
X94734769Y-94174911D02*
X94687150Y-94079673D01*
X94687150Y-94079673D02*
X94639530Y-94032054D01*
X94639530Y-94032054D02*
X94544292Y-93984435D01*
X94544292Y-93984435D02*
X94353816Y-93984435D01*
X94353816Y-93984435D02*
X94258578Y-94032054D01*
X94258578Y-94032054D02*
X94210959Y-94079673D01*
X94210959Y-94079673D02*
X94163340Y-94174911D01*
X98152330Y-83472350D02*
X98247568Y-83519969D01*
X98247568Y-83519969D02*
X98438044Y-83519969D01*
X98438044Y-83519969D02*
X98533282Y-83472350D01*
X98533282Y-83472350D02*
X98580901Y-83377111D01*
X98580901Y-83377111D02*
X98580901Y-83329492D01*
X98580901Y-83329492D02*
X98533282Y-83234254D01*
X98533282Y-83234254D02*
X98438044Y-83186635D01*
X98438044Y-83186635D02*
X98295187Y-83186635D01*
X98295187Y-83186635D02*
X98199949Y-83139016D01*
X98199949Y-83139016D02*
X98152330Y-83043778D01*
X98152330Y-83043778D02*
X98152330Y-82996159D01*
X98152330Y-82996159D02*
X98199949Y-82900921D01*
X98199949Y-82900921D02*
X98295187Y-82853302D01*
X98295187Y-82853302D02*
X98438044Y-82853302D01*
X98438044Y-82853302D02*
X98533282Y-82900921D01*
X98914235Y-82853302D02*
X99104711Y-83519969D01*
X99104711Y-83519969D02*
X99295187Y-83043778D01*
X99295187Y-83043778D02*
X99485663Y-83519969D01*
X99485663Y-83519969D02*
X99676139Y-82853302D01*
X99818997Y-83615207D02*
X100580901Y-83615207D01*
X100771378Y-83472350D02*
X100866616Y-83519969D01*
X100866616Y-83519969D02*
X101057092Y-83519969D01*
X101057092Y-83519969D02*
X101152330Y-83472350D01*
X101152330Y-83472350D02*
X101199949Y-83377111D01*
X101199949Y-83377111D02*
X101199949Y-83329492D01*
X101199949Y-83329492D02*
X101152330Y-83234254D01*
X101152330Y-83234254D02*
X101057092Y-83186635D01*
X101057092Y-83186635D02*
X100914235Y-83186635D01*
X100914235Y-83186635D02*
X100818997Y-83139016D01*
X100818997Y-83139016D02*
X100771378Y-83043778D01*
X100771378Y-83043778D02*
X100771378Y-82996159D01*
X100771378Y-82996159D02*
X100818997Y-82900921D01*
X100818997Y-82900921D02*
X100914235Y-82853302D01*
X100914235Y-82853302D02*
X101057092Y-82853302D01*
X101057092Y-82853302D02*
X101152330Y-82900921D01*
X101628521Y-82853302D02*
X101628521Y-83853302D01*
X101628521Y-82900921D02*
X101723759Y-82853302D01*
X101723759Y-82853302D02*
X101914235Y-82853302D01*
X101914235Y-82853302D02*
X102009473Y-82900921D01*
X102009473Y-82900921D02*
X102057092Y-82948540D01*
X102057092Y-82948540D02*
X102104711Y-83043778D01*
X102104711Y-83043778D02*
X102104711Y-83329492D01*
X102104711Y-83329492D02*
X102057092Y-83424730D01*
X102057092Y-83424730D02*
X102009473Y-83472350D01*
X102009473Y-83472350D02*
X101914235Y-83519969D01*
X101914235Y-83519969D02*
X101723759Y-83519969D01*
X101723759Y-83519969D02*
X101628521Y-83472350D01*
X102914235Y-83472350D02*
X102818997Y-83519969D01*
X102818997Y-83519969D02*
X102628521Y-83519969D01*
X102628521Y-83519969D02*
X102533283Y-83472350D01*
X102533283Y-83472350D02*
X102485664Y-83377111D01*
X102485664Y-83377111D02*
X102485664Y-82996159D01*
X102485664Y-82996159D02*
X102533283Y-82900921D01*
X102533283Y-82900921D02*
X102628521Y-82853302D01*
X102628521Y-82853302D02*
X102818997Y-82853302D01*
X102818997Y-82853302D02*
X102914235Y-82900921D01*
X102914235Y-82900921D02*
X102961854Y-82996159D01*
X102961854Y-82996159D02*
X102961854Y-83091397D01*
X102961854Y-83091397D02*
X102485664Y-83186635D01*
X103771378Y-83472350D02*
X103676140Y-83519969D01*
X103676140Y-83519969D02*
X103485664Y-83519969D01*
X103485664Y-83519969D02*
X103390426Y-83472350D01*
X103390426Y-83472350D02*
X103342807Y-83377111D01*
X103342807Y-83377111D02*
X103342807Y-82996159D01*
X103342807Y-82996159D02*
X103390426Y-82900921D01*
X103390426Y-82900921D02*
X103485664Y-82853302D01*
X103485664Y-82853302D02*
X103676140Y-82853302D01*
X103676140Y-82853302D02*
X103771378Y-82900921D01*
X103771378Y-82900921D02*
X103818997Y-82996159D01*
X103818997Y-82996159D02*
X103818997Y-83091397D01*
X103818997Y-83091397D02*
X103342807Y-83186635D01*
X104676140Y-83519969D02*
X104676140Y-82519969D01*
X104676140Y-83472350D02*
X104580902Y-83519969D01*
X104580902Y-83519969D02*
X104390426Y-83519969D01*
X104390426Y-83519969D02*
X104295188Y-83472350D01*
X104295188Y-83472350D02*
X104247569Y-83424730D01*
X104247569Y-83424730D02*
X104199950Y-83329492D01*
X104199950Y-83329492D02*
X104199950Y-83043778D01*
X104199950Y-83043778D02*
X104247569Y-82948540D01*
X104247569Y-82948540D02*
X104295188Y-82900921D01*
X104295188Y-82900921D02*
X104390426Y-82853302D01*
X104390426Y-82853302D02*
X104580902Y-82853302D01*
X104580902Y-82853302D02*
X104676140Y-82900921D01*
X104914236Y-83615207D02*
X105676140Y-83615207D01*
X106342807Y-82853302D02*
X106342807Y-83519969D01*
X105914236Y-82853302D02*
X105914236Y-83377111D01*
X105914236Y-83377111D02*
X105961855Y-83472350D01*
X105961855Y-83472350D02*
X106057093Y-83519969D01*
X106057093Y-83519969D02*
X106199950Y-83519969D01*
X106199950Y-83519969D02*
X106295188Y-83472350D01*
X106295188Y-83472350D02*
X106342807Y-83424730D01*
X106818998Y-82853302D02*
X106818998Y-83853302D01*
X106818998Y-82900921D02*
X106914236Y-82853302D01*
X106914236Y-82853302D02*
X107104712Y-82853302D01*
X107104712Y-82853302D02*
X107199950Y-82900921D01*
X107199950Y-82900921D02*
X107247569Y-82948540D01*
X107247569Y-82948540D02*
X107295188Y-83043778D01*
X107295188Y-83043778D02*
X107295188Y-83329492D01*
X107295188Y-83329492D02*
X107247569Y-83424730D01*
X107247569Y-83424730D02*
X107199950Y-83472350D01*
X107199950Y-83472350D02*
X107104712Y-83519969D01*
X107104712Y-83519969D02*
X106914236Y-83519969D01*
X106914236Y-83519969D02*
X106818998Y-83472350D01*
X108247569Y-83519969D02*
X107676141Y-83519969D01*
X107961855Y-83519969D02*
X107961855Y-82519969D01*
X107961855Y-82519969D02*
X107866617Y-82662826D01*
X107866617Y-82662826D02*
X107771379Y-82758064D01*
X107771379Y-82758064D02*
X107676141Y-82805683D01*
X185584769Y-66526816D02*
X185108578Y-66860149D01*
X185584769Y-67098244D02*
X184584769Y-67098244D01*
X184584769Y-67098244D02*
X184584769Y-66717292D01*
X184584769Y-66717292D02*
X184632388Y-66622054D01*
X184632388Y-66622054D02*
X184680007Y-66574435D01*
X184680007Y-66574435D02*
X184775245Y-66526816D01*
X184775245Y-66526816D02*
X184918102Y-66526816D01*
X184918102Y-66526816D02*
X185013340Y-66574435D01*
X185013340Y-66574435D02*
X185060959Y-66622054D01*
X185060959Y-66622054D02*
X185108578Y-66717292D01*
X185108578Y-66717292D02*
X185108578Y-67098244D01*
X184918102Y-65669673D02*
X185584769Y-65669673D01*
X184537150Y-65907768D02*
X185251435Y-66145863D01*
X185251435Y-66145863D02*
X185251435Y-65526816D01*
X104652331Y-71472350D02*
X104747569Y-71519969D01*
X104747569Y-71519969D02*
X104938045Y-71519969D01*
X104938045Y-71519969D02*
X105033283Y-71472350D01*
X105033283Y-71472350D02*
X105080902Y-71377111D01*
X105080902Y-71377111D02*
X105080902Y-71329492D01*
X105080902Y-71329492D02*
X105033283Y-71234254D01*
X105033283Y-71234254D02*
X104938045Y-71186635D01*
X104938045Y-71186635D02*
X104795188Y-71186635D01*
X104795188Y-71186635D02*
X104699950Y-71139016D01*
X104699950Y-71139016D02*
X104652331Y-71043778D01*
X104652331Y-71043778D02*
X104652331Y-70996159D01*
X104652331Y-70996159D02*
X104699950Y-70900921D01*
X104699950Y-70900921D02*
X104795188Y-70853302D01*
X104795188Y-70853302D02*
X104938045Y-70853302D01*
X104938045Y-70853302D02*
X105033283Y-70900921D01*
X105414236Y-70853302D02*
X105604712Y-71519969D01*
X105604712Y-71519969D02*
X105795188Y-71043778D01*
X105795188Y-71043778D02*
X105985664Y-71519969D01*
X105985664Y-71519969D02*
X106176140Y-70853302D01*
X106318998Y-71615207D02*
X107080902Y-71615207D01*
X107318998Y-71519969D02*
X107318998Y-70853302D01*
X107318998Y-70948540D02*
X107366617Y-70900921D01*
X107366617Y-70900921D02*
X107461855Y-70853302D01*
X107461855Y-70853302D02*
X107604712Y-70853302D01*
X107604712Y-70853302D02*
X107699950Y-70900921D01*
X107699950Y-70900921D02*
X107747569Y-70996159D01*
X107747569Y-70996159D02*
X107747569Y-71519969D01*
X107747569Y-70996159D02*
X107795188Y-70900921D01*
X107795188Y-70900921D02*
X107890426Y-70853302D01*
X107890426Y-70853302D02*
X108033283Y-70853302D01*
X108033283Y-70853302D02*
X108128522Y-70900921D01*
X108128522Y-70900921D02*
X108176141Y-70996159D01*
X108176141Y-70996159D02*
X108176141Y-71519969D01*
X108795188Y-71519969D02*
X108699950Y-71472350D01*
X108699950Y-71472350D02*
X108652331Y-71424730D01*
X108652331Y-71424730D02*
X108604712Y-71329492D01*
X108604712Y-71329492D02*
X108604712Y-71043778D01*
X108604712Y-71043778D02*
X108652331Y-70948540D01*
X108652331Y-70948540D02*
X108699950Y-70900921D01*
X108699950Y-70900921D02*
X108795188Y-70853302D01*
X108795188Y-70853302D02*
X108938045Y-70853302D01*
X108938045Y-70853302D02*
X109033283Y-70900921D01*
X109033283Y-70900921D02*
X109080902Y-70948540D01*
X109080902Y-70948540D02*
X109128521Y-71043778D01*
X109128521Y-71043778D02*
X109128521Y-71329492D01*
X109128521Y-71329492D02*
X109080902Y-71424730D01*
X109080902Y-71424730D02*
X109033283Y-71472350D01*
X109033283Y-71472350D02*
X108938045Y-71519969D01*
X108938045Y-71519969D02*
X108795188Y-71519969D01*
X109985664Y-71519969D02*
X109985664Y-70519969D01*
X109985664Y-71472350D02*
X109890426Y-71519969D01*
X109890426Y-71519969D02*
X109699950Y-71519969D01*
X109699950Y-71519969D02*
X109604712Y-71472350D01*
X109604712Y-71472350D02*
X109557093Y-71424730D01*
X109557093Y-71424730D02*
X109509474Y-71329492D01*
X109509474Y-71329492D02*
X109509474Y-71043778D01*
X109509474Y-71043778D02*
X109557093Y-70948540D01*
X109557093Y-70948540D02*
X109604712Y-70900921D01*
X109604712Y-70900921D02*
X109699950Y-70853302D01*
X109699950Y-70853302D02*
X109890426Y-70853302D01*
X109890426Y-70853302D02*
X109985664Y-70900921D01*
X110842807Y-71472350D02*
X110747569Y-71519969D01*
X110747569Y-71519969D02*
X110557093Y-71519969D01*
X110557093Y-71519969D02*
X110461855Y-71472350D01*
X110461855Y-71472350D02*
X110414236Y-71377111D01*
X110414236Y-71377111D02*
X110414236Y-70996159D01*
X110414236Y-70996159D02*
X110461855Y-70900921D01*
X110461855Y-70900921D02*
X110557093Y-70853302D01*
X110557093Y-70853302D02*
X110747569Y-70853302D01*
X110747569Y-70853302D02*
X110842807Y-70900921D01*
X110842807Y-70900921D02*
X110890426Y-70996159D01*
X110890426Y-70996159D02*
X110890426Y-71091397D01*
X110890426Y-71091397D02*
X110414236Y-71186635D01*
X111080903Y-71615207D02*
X111842807Y-71615207D01*
X112080903Y-70853302D02*
X112080903Y-71710445D01*
X112080903Y-71710445D02*
X112033284Y-71805683D01*
X112033284Y-71805683D02*
X111938046Y-71853302D01*
X111938046Y-71853302D02*
X111890427Y-71853302D01*
X112080903Y-70519969D02*
X112033284Y-70567588D01*
X112033284Y-70567588D02*
X112080903Y-70615207D01*
X112080903Y-70615207D02*
X112128522Y-70567588D01*
X112128522Y-70567588D02*
X112080903Y-70519969D01*
X112080903Y-70519969D02*
X112080903Y-70615207D01*
X112699950Y-71519969D02*
X112604712Y-71472350D01*
X112604712Y-71472350D02*
X112557093Y-71424730D01*
X112557093Y-71424730D02*
X112509474Y-71329492D01*
X112509474Y-71329492D02*
X112509474Y-71043778D01*
X112509474Y-71043778D02*
X112557093Y-70948540D01*
X112557093Y-70948540D02*
X112604712Y-70900921D01*
X112604712Y-70900921D02*
X112699950Y-70853302D01*
X112699950Y-70853302D02*
X112842807Y-70853302D01*
X112842807Y-70853302D02*
X112938045Y-70900921D01*
X112938045Y-70900921D02*
X112985664Y-70948540D01*
X112985664Y-70948540D02*
X113033283Y-71043778D01*
X113033283Y-71043778D02*
X113033283Y-71329492D01*
X113033283Y-71329492D02*
X112985664Y-71424730D01*
X112985664Y-71424730D02*
X112938045Y-71472350D01*
X112938045Y-71472350D02*
X112842807Y-71519969D01*
X112842807Y-71519969D02*
X112699950Y-71519969D01*
X113366617Y-70853302D02*
X113604712Y-71519969D01*
X113842807Y-70853302D02*
X113604712Y-71519969D01*
X113604712Y-71519969D02*
X113509474Y-71758064D01*
X113509474Y-71758064D02*
X113461855Y-71805683D01*
X113461855Y-71805683D02*
X113366617Y-71853302D01*
X114747569Y-71519969D02*
X114176141Y-71519969D01*
X114461855Y-71519969D02*
X114461855Y-70519969D01*
X114461855Y-70519969D02*
X114366617Y-70662826D01*
X114366617Y-70662826D02*
X114271379Y-70758064D01*
X114271379Y-70758064D02*
X114176141Y-70805683D01*
%TO.C,JO2*%
D11*
X174199950Y-97815150D02*
X174199950Y-103815150D01*
X174199950Y-117815150D02*
X174199950Y-123815150D01*
X178199950Y-97815150D02*
X208199950Y-97815150D01*
X208199950Y-97815150D02*
X208199950Y-123815150D01*
X208199950Y-123815150D02*
X178199950Y-123815150D01*
%TO.C,R2*%
D12*
X119212083Y-75635150D02*
G75*
G02*
X119212083Y-73995150I-417133J820000D01*
G01*
%TO.C,TP1*%
D13*
X129124950Y-121364150D02*
X129124950Y-101364150D01*
X135404950Y-98244150D02*
X139994950Y-98244150D01*
X143164950Y-124484150D02*
X132234950Y-124484150D01*
X146274950Y-121364150D02*
X146274950Y-101364150D01*
%TO.C,SW4*%
D12*
X192699950Y-74565150D02*
X192699950Y-76065150D01*
X193949950Y-78565150D02*
X198449950Y-78565150D01*
X198449950Y-72065150D02*
X193949950Y-72065150D01*
X199699950Y-76065150D02*
X199699950Y-74565150D01*
%TO.C,SW2*%
X185699950Y-84565150D02*
X185699950Y-86065150D01*
X186949950Y-88565150D02*
X191449950Y-88565150D01*
X191449950Y-82065150D02*
X186949950Y-82065150D01*
X192699950Y-86065150D02*
X192699950Y-84565150D01*
%TO.C,sw_drop1*%
X116199950Y-86065150D02*
X116199950Y-87565150D01*
X117449950Y-90065150D02*
X121949950Y-90065150D01*
X121949950Y-83565150D02*
X117449950Y-83565150D01*
X123199950Y-87565150D02*
X123199950Y-86065150D01*
%TO.C,R3*%
X119362083Y-79635150D02*
G75*
G02*
X119362083Y-77995150I-417133J820000D01*
G01*
%TO.C,SW3*%
X199449950Y-84565150D02*
X199449950Y-86065150D01*
X200699950Y-88565150D02*
X205199950Y-88565150D01*
X205199950Y-82065150D02*
X200699950Y-82065150D01*
X206449950Y-86065150D02*
X206449950Y-84565150D01*
%TO.C,SW5*%
X167349950Y-118775150D02*
X167349950Y-117392150D01*
X167349950Y-118775150D02*
X168659950Y-118775150D01*
X167589950Y-111715150D02*
X168739950Y-111715150D01*
X167589950Y-118535150D02*
X167589950Y-111715150D01*
X167589950Y-118535150D02*
X168659950Y-118535150D01*
X169064950Y-115728483D02*
X170334950Y-115728483D01*
X170659950Y-111715150D02*
X171809950Y-111715150D01*
X170739950Y-118535150D02*
X171809950Y-118535150D01*
X171809950Y-118535150D02*
X171809950Y-111715150D01*
X169064950Y-113315150D02*
X170334950Y-113315150D01*
X170334950Y-116935150D01*
X169064950Y-116935150D01*
X169064950Y-113315150D01*
X169064950Y-115728483D02*
X170334950Y-115728483D01*
X170334950Y-116935150D01*
X169064950Y-116935150D01*
X169064950Y-115728483D01*
G36*
X169064950Y-115728483D02*
G01*
X170334950Y-115728483D01*
X170334950Y-116935150D01*
X169064950Y-116935150D01*
X169064950Y-115728483D01*
G37*
%TO.C,R7*%
X200869950Y-67298017D02*
G75*
G02*
X199229950Y-67298017I-820000J-417133D01*
G01*
%TO.C,J1*%
X167689950Y-98455150D02*
X168899950Y-98455150D01*
X167689950Y-105175150D02*
X167689950Y-98455150D01*
X168899950Y-98455150D02*
X168899950Y-97955150D01*
X168899950Y-105175150D02*
X167689950Y-105175150D01*
X168899950Y-105675150D02*
X168899950Y-105175150D01*
X169009950Y-105975150D02*
X171509950Y-105975150D01*
X169709950Y-97955150D02*
X169709950Y-98955150D01*
X169709950Y-98955150D02*
X171209950Y-98955150D01*
X169709950Y-104675150D02*
X171209950Y-104675150D01*
X169709950Y-105675150D02*
X169709950Y-104675150D01*
X171509950Y-105975150D02*
X171509950Y-103475150D01*
X167189950Y-97955150D02*
X171209950Y-97955150D01*
X171209950Y-105675150D01*
X167189950Y-105675150D01*
X167189950Y-97955150D01*
%TO.C,D1*%
X97154950Y-77954650D02*
X97619950Y-77954650D01*
X99779950Y-77954650D02*
X100244950Y-77954650D01*
X97155120Y-77954650D02*
G75*
G02*
X97619123Y-72606835I1544830J2560000D01*
G01*
X97619950Y-77649334D02*
G75*
G02*
X97619521Y-73140171I1080000J2254684D01*
G01*
X99780379Y-73140171D02*
G75*
G02*
X99779950Y-77649334I-1080429J-2254479D01*
G01*
X99780777Y-72606835D02*
G75*
G02*
X100244780Y-77954650I-1080827J-2787815D01*
G01*
%TO.C,R5*%
X192519950Y-67298017D02*
G75*
G02*
X190879950Y-67298017I-820000J-417133D01*
G01*
%TO.C,U2*%
D13*
X148679950Y-118465150D02*
X148679950Y-98165150D01*
X151472450Y-98165150D02*
X164379950Y-98165150D01*
X164379950Y-98165150D02*
X164379950Y-118465150D01*
X164379950Y-118465150D02*
X151472450Y-118465150D01*
%TO.C,U1*%
X127064950Y-70115150D02*
X133804950Y-70115150D01*
X127064950Y-88115150D02*
X127064950Y-70115150D01*
X133804950Y-70115150D02*
X133804950Y-66145150D01*
X133804950Y-88115150D02*
X127064950Y-88115150D01*
X133804950Y-92085150D02*
X133804950Y-88115150D01*
X181064950Y-65145150D02*
X134804950Y-65145150D01*
X181064950Y-93085150D02*
X134804950Y-93085150D01*
X182064950Y-75065150D02*
X182064950Y-66145150D01*
X182064950Y-83165150D02*
X183064950Y-83165150D01*
X182064950Y-92085150D02*
X182064950Y-83165150D01*
X183064950Y-75065150D02*
X182064950Y-75065150D01*
X183064950Y-83165150D02*
X183064950Y-75065150D01*
X133804950Y-66145150D02*
G75*
G02*
X134804950Y-65145150I1000000J0D01*
G01*
X134804950Y-93085150D02*
G75*
G02*
X133804950Y-92085150I-1J999999D01*
G01*
X181064950Y-65145150D02*
G75*
G02*
X182064950Y-66145150I0J-1000000D01*
G01*
X182064950Y-92085150D02*
G75*
G02*
X181064950Y-93085150I-999999J-1D01*
G01*
D14*
X135199950Y-93615150D02*
G75*
G02*
X134999950Y-93615150I-100000J0D01*
G01*
X134999950Y-93615150D02*
G75*
G02*
X135199950Y-93615150I100000J0D01*
G01*
%TO.C,R9*%
D12*
X101519950Y-95298017D02*
G75*
G02*
X99879950Y-95298017I-820000J-417133D01*
G01*
%TO.C,R1*%
X119212083Y-70835150D02*
G75*
G02*
X119212083Y-69195150I-417133J820000D01*
G01*
%TO.C,JO1*%
D11*
X91699950Y-98815150D02*
X91699950Y-104815150D01*
X91699950Y-118815150D02*
X91699950Y-124815150D01*
X95699950Y-98815150D02*
X125699950Y-98815150D01*
X125699950Y-98815150D02*
X125699950Y-124815150D01*
X125699950Y-124815150D02*
X95699950Y-124815150D01*
%TO.C,R6*%
D12*
X196519950Y-67298017D02*
G75*
G02*
X194879950Y-67298017I-820000J-417133D01*
G01*
%TO.C,R8*%
X97019950Y-95303017D02*
G75*
G02*
X95379950Y-95303017I-820000J-417133D01*
G01*
%TO.C,sw_speed_up1*%
X99699950Y-86565150D02*
X99699950Y-88065150D01*
X100949950Y-90565150D02*
X105449950Y-90565150D01*
X105449950Y-84065150D02*
X100949950Y-84065150D01*
X106699950Y-88065150D02*
X106699950Y-86565150D01*
%TO.C,R4*%
X187869950Y-66893017D02*
G75*
G02*
X186229950Y-66893017I-820000J-417133D01*
G01*
%TO.C,sw_mode_joy1*%
X106199950Y-74565150D02*
X106199950Y-76065150D01*
X107449950Y-78565150D02*
X111949950Y-78565150D01*
X111949950Y-72065150D02*
X107449950Y-72065150D01*
X113199950Y-76065150D02*
X113199950Y-74565150D01*
%TD*%
M02*
